<?xml version="1.0" encoding="UTF-8"?>
<svg id="Layer_1" data-name="Layer 1" xmlns="http://www.w3.org/2000/svg" viewBox="0 0 1041.36 641">
  <rect x="2.77" width="1035.52" height="640" fill="#fffae1"/>
  <path d="M989.33,437.48V101.6c0-39.4-31.94-71.34-71.34-71.34H123.07c-39.4,0-71.34,31.94-71.34,71.34v335.88" fill="none" stroke="#124238" stroke-miterlimit="10" stroke-width="2"/>
  <g>
    <path d="M243.16,395.81c-53.41,0-96.87-43.46-96.87-96.87s43.46-96.87,96.87-96.87h534.64c53.41,0,96.87,43.46,96.87,96.87s-43.46,96.87-96.87,96.87H243.16Z" fill="orange"/>
    <path d="M777.81,203.07c52.86,0,95.87,43.01,95.87,95.87s-43.01,95.87-95.87,95.87H243.16c-52.86,0-95.87-43.01-95.87-95.87s43.01-95.87,95.87-95.87h534.64M777.81,201.07H243.16c-54.05,0-97.87,43.82-97.87,97.87h0c0,54.05,43.82,97.87,97.87,97.87h534.64c54.05,0,97.87-43.82,97.87-97.87h0c0-54.05-43.82-97.87-97.87-97.87h0Z" fill="#124238"/>
  </g>
  <text transform="translate(198.49 318.57)" fill="#121212" font-family="NimbusMono-Regular, &apos;Nimbus Mono&apos;" font-size="65"><tspan x="0" y="0">This CV Website!</tspan></text>
  <rect x="1" y="437.48" width="94.49" height="91.77" fill="none" stroke="#124238" stroke-miterlimit="10" stroke-width="2"/>
  <rect x="95.49" y="437.48" width="94.49" height="91.77" fill="none" stroke="#124238" stroke-miterlimit="10" stroke-width="2"/>
  <rect x="189.98" y="437.48" width="94.49" height="91.77" fill="none" stroke="#124238" stroke-miterlimit="10" stroke-width="2"/>
  <rect x="284.46" y="437.48" width="94.49" height="91.77" fill="none" stroke="#124238" stroke-miterlimit="10" stroke-width="2"/>
  <rect x="378.95" y="437.48" width="94.49" height="91.77" fill="none" stroke="#124238" stroke-miterlimit="10" stroke-width="2"/>
  <rect x="473.44" y="437.48" width="94.49" height="91.77" fill="none" stroke="#124238" stroke-miterlimit="10" stroke-width="2"/>
  <rect x="567.92" y="437.48" width="94.49" height="91.77" fill="none" stroke="#124238" stroke-miterlimit="10" stroke-width="2"/>
  <rect x="662.41" y="437.48" width="94.49" height="91.77" fill="none" stroke="#124238" stroke-miterlimit="10" stroke-width="2"/>
  <rect x="756.9" y="437.48" width="94.49" height="91.77" fill="none" stroke="#124238" stroke-miterlimit="10" stroke-width="2"/>
  <rect x="851.38" y="437.48" width="94.49" height="91.77" fill="none" stroke="#124238" stroke-miterlimit="10" stroke-width="2"/>
  <rect x="945.87" y="437.48" width="94.49" height="91.77" fill="none" stroke="#124238" stroke-miterlimit="10" stroke-width="2"/>
  <rect x="1" y="529.25" width="94.49" height="91.77" fill="none" stroke="#124238" stroke-miterlimit="10" stroke-width="2"/>
  <rect x="95.49" y="529.25" width="94.49" height="91.77" fill="none" stroke="#124238" stroke-miterlimit="10" stroke-width="2"/>
  <rect x="189.98" y="529.25" width="94.49" height="91.77" fill="none" stroke="#124238" stroke-miterlimit="10" stroke-width="2"/>
  <rect x="284.46" y="529.25" width="94.49" height="91.77" fill="none" stroke="#124238" stroke-miterlimit="10" stroke-width="2"/>
  <rect x="378.95" y="529.25" width="94.49" height="91.77" fill="none" stroke="#124238" stroke-miterlimit="10" stroke-width="2"/>
  <rect x="473.44" y="529.25" width="94.49" height="91.77" fill="none" stroke="#124238" stroke-miterlimit="10" stroke-width="2"/>
  <rect x="567.92" y="529.25" width="94.49" height="91.77" fill="none" stroke="#124238" stroke-miterlimit="10" stroke-width="2"/>
  <rect x="662.41" y="529.25" width="94.49" height="91.77" fill="none" stroke="#124238" stroke-miterlimit="10" stroke-width="2"/>
  <rect x="756.9" y="529.25" width="94.49" height="91.77" fill="none" stroke="#124238" stroke-miterlimit="10" stroke-width="2"/>
  <rect x="851.38" y="529.25" width="94.49" height="91.77" fill="none" stroke="#124238" stroke-miterlimit="10" stroke-width="2"/>
  <rect x="945.87" y="529.25" width="94.49" height="91.77" fill="none" stroke="#124238" stroke-miterlimit="10" stroke-width="2"/>
  <rect x="2.77" y="621.02" width="92.72" height="18.98" fill="none" stroke="#124238" stroke-miterlimit="10" stroke-width="2"/>
  <rect x="95.49" y="621.02" width="94.49" height="18.98" fill="none" stroke="#124238" stroke-miterlimit="10" stroke-width="2"/>
  <rect x="189.98" y="621.02" width="94.48" height="18.98" fill="none" stroke="#124238" stroke-miterlimit="10" stroke-width="2"/>
  <rect x="284.46" y="621.02" width="94.49" height="18.98" fill="none" stroke="#124238" stroke-miterlimit="10" stroke-width="2"/>
  <rect x="378.95" y="621.02" width="94.49" height="18.98" fill="none" stroke="#124238" stroke-miterlimit="10" stroke-width="2"/>
  <rect x="473.44" y="621.02" width="94.48" height="18.98" fill="none" stroke="#124238" stroke-miterlimit="10" stroke-width="2"/>
  <rect x="567.92" y="621.02" width="94.49" height="18.98" fill="none" stroke="#124238" stroke-miterlimit="10" stroke-width="2"/>
  <rect x="662.41" y="621.02" width="94.49" height="18.98" fill="none" stroke="#124238" stroke-miterlimit="10" stroke-width="2"/>
  <rect x="756.9" y="621.02" width="94.48" height="18.98" fill="none" stroke="#124238" stroke-miterlimit="10" stroke-width="2"/>
  <rect x="851.38" y="621.02" width="94.49" height="18.98" fill="none" stroke="#124238" stroke-miterlimit="10" stroke-width="2"/>
  <rect x="945.87" y="621.02" width="92.42" height="18.98" fill="none" stroke="#124238" stroke-miterlimit="10" stroke-width="2"/>
  <path d="M989.33,101.6v20.73H51.73v-20.73c0-39.4,31.94-71.34,71.34-71.34h794.92c39.4,0,71.34,31.94,71.34,71.34Z" fill="#124238"/>
  <rect x="2.77" width="1035.52" height="122.38" fill="#124238"/>
  <g>
    <circle cx="915.59" cy="123.87" r="45.36" fill="orange"/>
    <g>
      <line x1="936.46" y1="101.27" x2="903.56" y2="136.9" fill="none" stroke="#124238" stroke-miterlimit="10" stroke-width="2"/>
      <polygon points="898.71 128.83 894.73 146.46 911.99 141.09 898.71 128.83" fill="#124238"/>
    </g>
  </g>
  <g>
    <path d="M890.75,352.42c-1.33-.39-2-.59-2.45-.42-.4.15-.71.46-.85.85-.17.45.03,1.12.42,2.45l12.23,41.57c.36,1.24.55,1.86.91,2.14.32.25.73.36,1.13.29.46-.08.92-.53,1.83-1.44l8.86-8.86,12.89,12.89c.58.58.86.86,1.2.97.29.09.61.09.9,0,.33-.11.62-.4,1.2-.97l8.34-8.34c.58-.58.86-.86.97-1.2.09-.29.09-.61,0-.9-.11-.33-.4-.62-.97-1.2l-12.89-12.89,8.86-8.86c.91-.91,1.37-1.37,1.45-1.83.07-.4-.04-.81-.29-1.13-.29-.37-.91-.55-2.14-.91l-41.57-12.23Z" fill="#fffae1"/>
    <path d="M927.36,404.25c-.29,0-.57-.05-.85-.14-.63-.21-1.04-.61-1.72-1.29l-11.97-11.97-7.93,7.93c-1.07,1.07-1.67,1.67-2.54,1.81-.76.13-1.55-.07-2.15-.55-.7-.55-.93-1.35-1.36-2.81l-12.23-41.57c-.46-1.56-.71-2.42-.39-3.28.28-.75.87-1.34,1.62-1.62.86-.32,1.72-.07,3.28.39l-.37,1.26.37-1.25,41.57,12.23c1.46.43,2.26.66,2.81,1.36.48.61.68,1.39.55,2.15-.15.87-.74,1.47-1.81,2.54l-7.93,7.93,11.97,11.97c.68.68,1.09,1.09,1.29,1.72.18.56.18,1.15,0,1.71-.2.63-.61,1.04-1.29,1.72l-8.34,8.34c-.68.68-1.09,1.09-1.72,1.29-.28.09-.57.14-.85.14ZM927.36,401.64s0,0,0,0h0ZM927.35,401.64s0,0,0,0c0,0,0,0,0,0ZM927.34,401.63s.03,0,.05,0c.12-.08.41-.37.7-.66l8.34-8.34c.28-.28.58-.58.66-.7,0-.02,0-.03,0-.05-.08-.12-.37-.41-.66-.7l-12.89-12.89c-.25-.25-.38-.58-.38-.92s.14-.68.38-.92l8.86-8.86c.47-.47.95-.95,1.08-1.16,0-.01,0-.03,0-.04-.21-.12-.87-.31-1.5-.5l-41.57-12.23c-.69-.2-1.4-.41-1.66-.43,0,0-.02.02-.02.02.01.26.22.98.43,1.66l12.23,41.57c.19.64.38,1.29.5,1.5.01,0,.02,0,.04,0,.21-.13.69-.61,1.16-1.08l8.86-8.86c.51-.51,1.34-.51,1.85,0l12.89,12.89c.28.28.58.58.7.66ZM901.87,398.05s0,0,0,0h0ZM933.49,366.43h0,0ZM933.49,366.4s0,0,0,0c0,0,0,0,0,0ZM888.67,353.25h0,0ZM888.69,353.23s0,0,0,0c0,0,0,0,0,0Z" fill="#124238"/>
  </g>
</svg>