<?xml version="1.0" encoding="UTF-8"?>
<svg id="Layer_1" data-name="Layer 1" xmlns="http://www.w3.org/2000/svg" viewBox="0 0 1041.36 641">
  <rect x="2.77" width="1035.52" height="640" fill="#fffae1"/>
  <path d="M989.33,437.48V101.6c0-39.4-31.94-71.34-71.34-71.34H123.07c-39.4,0-71.34,31.94-71.34,71.34v335.88" fill="none" stroke="#124238" stroke-miterlimit="10" stroke-width="2"/>
  <g>
    <path d="M243.16,395.81c-53.41,0-96.87-43.46-96.87-96.87s43.46-96.87,96.87-96.87h534.64c53.41,0,96.87,43.46,96.87,96.87s-43.46,96.87-96.87,96.87H243.16Z" fill="orange"/>
    <path d="M777.81,203.07c52.86,0,95.87,43.01,95.87,95.87s-43.01,95.87-95.87,95.87H243.16c-52.86,0-95.87-43.01-95.87-95.87s43.01-95.87,95.87-95.87h534.64M777.81,201.07H243.16c-54.05,0-97.87,43.82-97.87,97.87h0c0,54.05,43.82,97.87,97.87,97.87h534.64c54.05,0,97.87-43.82,97.87-97.87h0c0-54.05-43.82-97.87-97.87-97.87h0Z" fill="#124238"/>
  </g>
  <g>
    <rect x="180.82" y="269.28" width="659.33" height="59.33" fill="none"/>
    <path d="M226.18,315.91c1.17,0,1.76.46,1.76,1.3,0,.91-.58,1.37-1.76,1.37h-16.32c-1.17,0-1.76-.46-1.76-1.37,0-.84.59-1.3,1.76-1.3h6.83v-31.27h-10.86v4.75c0,1.17-.46,1.75-1.36,1.75-.85,0-1.3-.58-1.3-1.75v-7.41h29.64v7.41c0,1.3-.39,1.75-1.3,1.75-.78,0-1.37-.71-1.37-1.75v-4.75h-10.79v31.27h6.83Z" fill="#121212"/>
    <path d="M248.22,296.01c3.31-3.97,6.04-5.46,10.01-5.46,6.04,0,10.34,3.77,10.34,9.1v16.25h2.92c1.24,0,1.82.46,1.82,1.3,0,.91-.58,1.37-1.82,1.37h-8.52c-1.17,0-1.75-.46-1.75-1.37,0-.84.58-1.3,1.75-1.3h2.93v-16.06c0-1.95-.85-3.64-2.47-4.94-1.5-1.3-2.93-1.69-5.53-1.69s-4.35.65-6.31,2.34q-.78.65-3.38,3.77v16.58h2.92c1.24,0,1.82.46,1.82,1.3,0,.91-.58,1.37-1.82,1.37h-8.58c-1.17,0-1.76-.46-1.76-1.37,0-.84.58-1.3,1.76-1.3h2.99v-33.93h-3.51c-1.17,0-1.76-.46-1.76-1.37,0-.85.59-1.3,1.76-1.3h6.18v16.71Z" fill="#121212"/>
    <path d="M297.29,315.91h10.4c1.23,0,1.82.46,1.82,1.3,0,.91-.59,1.37-1.82,1.37h-23.47c-1.17,0-1.75-.46-1.75-1.37,0-.84.58-1.3,1.75-1.3h10.4v-21.78h-7.67c-1.17,0-1.75-.46-1.75-1.37,0-.84.58-1.3,1.75-1.3h10.34v24.44ZM297.16,284.77h-3.84v-6.76h3.84v6.76Z" fill="#121212"/>
    <path d="M324.85,311.55c0,2.99,4.49,5.4,10.01,5.4s10.01-2.54,10.01-5.98c0-1.5-1.11-3.05-2.86-4.09-1.69-.91-3.45-1.37-7.02-1.76-4.81-.52-6.63-.98-8.45-2.08-1.88-1.17-2.99-3.12-2.99-5.14,0-4.23,4.75-7.35,11.12-7.35,3.71,0,6.63.98,8.91,2.99,0-1.37.46-2.08,1.37-2.08.84,0,1.3.58,1.3,1.82v4.49c0,1.17-.46,1.75-1.3,1.75s-1.24-.46-1.37-1.5c-.26-2.86-3.71-4.81-8.65-4.81s-8.45,2.08-8.45,4.88c0,1.04.72,2.15,2.02,2.92,1.5.91,2.08,1.04,7.61,1.62,7.74.85,11.7,3.71,11.7,8.39,0,5-5.33,8.58-12.74,8.58-4.29,0-7.48-1.11-10.21-3.51v.71c0,1.17-.46,1.75-1.37,1.75-.84,0-1.3-.58-1.3-1.75v-5.4c0-1.17.46-1.75,1.36-1.75.78,0,1.3.58,1.3,1.43v.45Z" fill="#121212"/>
    <path d="M424.56,283.73c0-1.17.46-1.75,1.36-1.75s1.3.52,1.3,1.75v7.28c0,1.17-.46,1.75-1.37,1.75-.78,0-1.23-.52-1.3-1.56-.26-3.96-5.46-7.41-11.25-7.41-7.22,0-13.07,6.24-13.07,14.04v4.62c0,7.87,6.5,14.5,14.17,14.5,4.55,0,7.8-1.69,11.31-5.85.46-.52.71-.65,1.17-.65.78,0,1.3.52,1.3,1.24,0,.65-.78,1.69-2.47,3.31-3.19,2.99-7.15,4.62-11.31,4.62-8.84,0-16.84-7.93-16.84-16.77v-5.4c0-3.96,1.82-8.52,4.62-11.51,2.92-3.12,6.76-4.81,11.12-4.81s8.19,1.56,11.25,4.49v-1.89Z" fill="#121212"/>
    <path d="M436.84,284.64h-2.02c-1.17,0-1.75-.46-1.75-1.37s.52-1.3,1.75-1.3h9.82c1.24,0,1.76.39,1.76,1.3s-.58,1.37-1.76,1.37h-5l12.09,31.27h.19l12.55-31.27h-5.07c-1.17,0-1.76-.46-1.76-1.37s.52-1.3,1.76-1.3h9.75c1.24,0,1.76.39,1.76,1.3s-.58,1.37-1.76,1.37h-2.01l-13.59,33.93h-3.71l-13-33.93Z" fill="#121212"/>
    <path d="M514.52,284.64h-.98c-1.17,0-1.76-.46-1.76-1.37s.59-1.3,1.76-1.3h9.69c1.24,0,1.82.45,1.82,1.3,0,.91-.58,1.37-1.82,1.37h-6.04l3.64,30.94,7.28-25.48h4.03l7.09,25.48,3.71-30.94h-6.24c-1.17,0-1.75-.46-1.75-1.37s.52-1.3,1.75-1.3h9.75c1.17,0,1.75.39,1.75,1.3s-.58,1.37-1.75,1.37h-.97l-4.03,33.93h-4.16l-7.28-26-7.48,26h-4.1l-3.9-33.93Z" fill="#121212"/>
    <path d="M556.25,305.63c.91,6.83,6.11,11.31,13.13,11.31,4.03,0,8.78-1.5,11.38-3.51.46-.39.65-.46,1.04-.46.65,0,1.23.58,1.23,1.3,0,.84-.97,1.75-3.12,2.79-3.18,1.62-6.96,2.54-10.53,2.54-8.91,0-15.8-6.63-15.8-15.15,0-7.87,6.44-13.91,14.82-13.91,6.3,0,11.44,3.25,13.78,8.71.91,2.15,1.11,3.38,1.11,6.37h-27.04ZM580.56,302.97c-1.04-5.92-5.79-9.75-12.16-9.75s-10.99,3.77-12.16,9.75h24.31Z" fill="#121212"/>
    <path d="M597.85,297.25c3.25-4.62,6.89-6.7,11.7-6.7,7.93,0,14.11,6.31,14.11,14.37s-6.3,14.69-14.11,14.69c-4.81,0-8.58-2.21-11.7-6.76v5.72h-6.17c-1.17,0-1.76-.46-1.76-1.37,0-.84.58-1.3,1.76-1.3h3.51v-33.93h-3.51c-1.17,0-1.76-.46-1.76-1.37,0-.85.58-1.3,1.76-1.3h6.17v17.94ZM597.85,305.05c0,6.63,5.13,11.9,11.57,11.9s11.57-5.27,11.57-11.83-5.13-11.9-11.7-11.9-11.44,5.33-11.44,11.83Z" fill="#121212"/>
    <path d="M636.84,311.55c0,2.99,4.49,5.4,10.01,5.4s10.01-2.54,10.01-5.98c0-1.5-1.1-3.05-2.86-4.09-1.69-.91-3.44-1.37-7.02-1.76-4.81-.52-6.63-.98-8.45-2.08-1.89-1.17-2.99-3.12-2.99-5.14,0-4.23,4.75-7.35,11.12-7.35,3.71,0,6.63.98,8.91,2.99,0-1.37.46-2.08,1.37-2.08.84,0,1.3.58,1.3,1.82v4.49c0,1.17-.46,1.75-1.3,1.75s-1.24-.46-1.37-1.5c-.26-2.86-3.71-4.81-8.65-4.81s-8.45,2.08-8.45,4.88c0,1.04.71,2.15,2.02,2.92,1.49.91,2.08,1.04,7.6,1.62,7.74.85,11.7,3.71,11.7,8.39,0,5-5.33,8.58-12.74,8.58-4.29,0-7.47-1.11-10.21-3.51v.71c0,1.17-.46,1.75-1.37,1.75-.84,0-1.3-.58-1.3-1.75v-5.4c0-1.17.46-1.75,1.37-1.75.78,0,1.3.58,1.3,1.43v.45Z" fill="#121212"/>
    <path d="M687.28,315.91h10.4c1.24,0,1.82.46,1.82,1.3,0,.91-.58,1.37-1.82,1.37h-23.47c-1.17,0-1.75-.46-1.75-1.37,0-.84.58-1.3,1.75-1.3h10.4v-21.78h-7.67c-1.17,0-1.76-.46-1.76-1.37,0-.84.58-1.3,1.76-1.3h10.33v24.44ZM687.15,284.77h-3.83v-6.76h3.83v6.76Z" fill="#121212"/>
    <path d="M731.87,291.46c1.17,0,1.76.39,1.76,1.3s-.58,1.37-1.76,1.37h-14.3v17.36c0,3.38,2.79,5.46,7.34,5.46,3.58,0,8.32-1.17,10.73-2.6.52-.32.71-.39,1.04-.39.65,0,1.24.58,1.24,1.3,0,1.89-7.35,4.36-12.94,4.36-6.11,0-10.08-3.12-10.08-8v-17.49h-4.81c-1.24,0-1.82-.46-1.82-1.37s.58-1.3,1.82-1.3h4.81v-7.74c0-1.17.45-1.75,1.36-1.75s1.3.52,1.3,1.75v7.74h14.3Z" fill="#121212"/>
    <path d="M751.24,305.63c.91,6.83,6.11,11.31,13.13,11.31,4.03,0,8.78-1.5,11.38-3.51.45-.39.65-.46,1.04-.46.65,0,1.23.58,1.23,1.3,0,.84-.97,1.75-3.12,2.79-3.18,1.62-6.96,2.54-10.53,2.54-8.91,0-15.8-6.63-15.8-15.15,0-7.87,6.44-13.91,14.82-13.91,6.3,0,11.44,3.25,13.78,8.71.91,2.15,1.1,3.38,1.1,6.37h-27.04ZM775.55,302.97c-1.04-5.92-5.79-9.75-12.16-9.75s-10.99,3.77-12.16,9.75h24.31Z" fill="#121212"/>
    <path d="M803.37,313.04c1.95,0,3.51,1.43,3.51,3.25s-1.56,3.25-3.51,3.25h-.84c-1.95,0-3.45-1.43-3.45-3.25s1.5-3.25,3.45-3.25h.84ZM804.28,303.16c-.07,1.3-.46,1.82-1.37,1.82-.84,0-1.24-.52-1.3-1.82l-1.17-21.19c-.07-.46-.07-.78-.07-1.04,0-1.43,1.11-2.54,2.6-2.54s2.54,1.1,2.54,2.47c0,.19,0,.58-.07,1.1l-1.17,21.19Z" fill="#121212"/>
  </g>
  <rect x="1" y="437.48" width="94.49" height="91.77" fill="none" stroke="#124238" stroke-miterlimit="10" stroke-width="2"/>
  <rect x="95.49" y="437.48" width="94.49" height="91.77" fill="none" stroke="#124238" stroke-miterlimit="10" stroke-width="2"/>
  <rect x="189.98" y="437.48" width="94.49" height="91.77" fill="none" stroke="#124238" stroke-miterlimit="10" stroke-width="2"/>
  <rect x="284.46" y="437.48" width="94.49" height="91.77" fill="none" stroke="#124238" stroke-miterlimit="10" stroke-width="2"/>
  <rect x="378.95" y="437.48" width="94.49" height="91.77" fill="none" stroke="#124238" stroke-miterlimit="10" stroke-width="2"/>
  <rect x="473.44" y="437.48" width="94.49" height="91.77" fill="none" stroke="#124238" stroke-miterlimit="10" stroke-width="2"/>
  <rect x="567.92" y="437.48" width="94.49" height="91.77" fill="none" stroke="#124238" stroke-miterlimit="10" stroke-width="2"/>
  <rect x="662.41" y="437.48" width="94.49" height="91.77" fill="none" stroke="#124238" stroke-miterlimit="10" stroke-width="2"/>
  <rect x="756.9" y="437.48" width="94.49" height="91.77" fill="none" stroke="#124238" stroke-miterlimit="10" stroke-width="2"/>
  <rect x="851.38" y="437.48" width="94.49" height="91.77" fill="none" stroke="#124238" stroke-miterlimit="10" stroke-width="2"/>
  <rect x="945.87" y="437.48" width="94.49" height="91.77" fill="none" stroke="#124238" stroke-miterlimit="10" stroke-width="2"/>
  <rect x="1" y="529.25" width="94.49" height="91.77" fill="none" stroke="#124238" stroke-miterlimit="10" stroke-width="2"/>
  <rect x="95.49" y="529.25" width="94.49" height="91.77" fill="none" stroke="#124238" stroke-miterlimit="10" stroke-width="2"/>
  <rect x="189.98" y="529.25" width="94.49" height="91.77" fill="none" stroke="#124238" stroke-miterlimit="10" stroke-width="2"/>
  <rect x="284.46" y="529.25" width="94.49" height="91.77" fill="none" stroke="#124238" stroke-miterlimit="10" stroke-width="2"/>
  <rect x="378.95" y="529.25" width="94.49" height="91.77" fill="none" stroke="#124238" stroke-miterlimit="10" stroke-width="2"/>
  <rect x="473.44" y="529.25" width="94.49" height="91.77" fill="none" stroke="#124238" stroke-miterlimit="10" stroke-width="2"/>
  <rect x="567.92" y="529.25" width="94.49" height="91.77" fill="none" stroke="#124238" stroke-miterlimit="10" stroke-width="2"/>
  <rect x="662.41" y="529.25" width="94.49" height="91.77" fill="none" stroke="#124238" stroke-miterlimit="10" stroke-width="2"/>
  <rect x="756.9" y="529.25" width="94.49" height="91.77" fill="none" stroke="#124238" stroke-miterlimit="10" stroke-width="2"/>
  <rect x="851.38" y="529.25" width="94.49" height="91.77" fill="none" stroke="#124238" stroke-miterlimit="10" stroke-width="2"/>
  <rect x="945.87" y="529.25" width="94.49" height="91.77" fill="none" stroke="#124238" stroke-miterlimit="10" stroke-width="2"/>
  <rect x="2.77" y="621.02" width="92.72" height="18.98" fill="none" stroke="#124238" stroke-miterlimit="10" stroke-width="2"/>
  <rect x="95.49" y="621.02" width="94.49" height="18.98" fill="none" stroke="#124238" stroke-miterlimit="10" stroke-width="2"/>
  <rect x="189.98" y="621.02" width="94.48" height="18.98" fill="none" stroke="#124238" stroke-miterlimit="10" stroke-width="2"/>
  <rect x="284.46" y="621.02" width="94.49" height="18.98" fill="none" stroke="#124238" stroke-miterlimit="10" stroke-width="2"/>
  <rect x="378.95" y="621.02" width="94.49" height="18.98" fill="none" stroke="#124238" stroke-miterlimit="10" stroke-width="2"/>
  <rect x="473.44" y="621.02" width="94.48" height="18.98" fill="none" stroke="#124238" stroke-miterlimit="10" stroke-width="2"/>
  <rect x="567.92" y="621.02" width="94.49" height="18.98" fill="none" stroke="#124238" stroke-miterlimit="10" stroke-width="2"/>
  <rect x="662.41" y="621.02" width="94.49" height="18.98" fill="none" stroke="#124238" stroke-miterlimit="10" stroke-width="2"/>
  <rect x="756.9" y="621.02" width="94.48" height="18.98" fill="none" stroke="#124238" stroke-miterlimit="10" stroke-width="2"/>
  <rect x="851.38" y="621.02" width="94.49" height="18.98" fill="none" stroke="#124238" stroke-miterlimit="10" stroke-width="2"/>
  <rect x="945.87" y="621.02" width="92.42" height="18.98" fill="none" stroke="#124238" stroke-miterlimit="10" stroke-width="2"/>
  <path d="M989.33,101.6v20.73H51.73v-20.73c0-39.4,31.94-71.34,71.34-71.34h794.92c39.4,0,71.34,31.94,71.34,71.34Z" fill="#124238"/>
  <rect x="2.77" width="1035.52" height="122.38" fill="#124238"/>
  <g>
    <circle cx="915.59" cy="123.87" r="45.36" fill="orange"/>
    <g>
      <line x1="936.46" y1="101.27" x2="903.56" y2="136.9" fill="none" stroke="#124238" stroke-miterlimit="10" stroke-width="2"/>
      <polygon points="898.71 128.83 894.73 146.46 911.99 141.09 898.71 128.83" fill="#124238"/>
    </g>
  </g>
  <g>
    <path d="M890.75,352.42c-1.33-.39-2-.59-2.45-.42-.4.15-.71.46-.85.85-.17.45.03,1.12.42,2.45l12.23,41.57c.36,1.24.55,1.86.91,2.14.32.25.73.36,1.13.29.46-.08.92-.53,1.83-1.44l8.86-8.86,12.89,12.89c.58.58.86.86,1.2.97.29.09.61.09.9,0,.33-.11.62-.4,1.2-.97l8.34-8.34c.58-.58.86-.86.97-1.2.09-.29.09-.61,0-.9-.11-.33-.4-.62-.97-1.2l-12.89-12.89,8.86-8.86c.91-.91,1.37-1.37,1.45-1.83.07-.4-.04-.81-.29-1.13-.29-.37-.91-.55-2.14-.91l-41.57-12.23Z" fill="#fffae1"/>
    <path d="M927.36,404.25c-.29,0-.57-.05-.85-.14-.63-.21-1.04-.61-1.72-1.29l-11.97-11.97-7.93,7.93c-1.07,1.07-1.67,1.67-2.54,1.81-.76.13-1.55-.07-2.15-.55-.7-.55-.93-1.35-1.36-2.81l-12.23-41.57c-.46-1.56-.71-2.42-.39-3.28.28-.75.87-1.34,1.62-1.62.86-.32,1.72-.07,3.28.39l-.37,1.26.37-1.25,41.57,12.23c1.46.43,2.26.66,2.81,1.36.48.61.68,1.39.55,2.15-.15.87-.74,1.47-1.81,2.54l-7.93,7.93,11.97,11.97c.68.68,1.09,1.09,1.29,1.72.18.56.18,1.15,0,1.71-.2.63-.61,1.04-1.29,1.72l-8.34,8.34c-.68.68-1.09,1.09-1.72,1.29-.28.09-.57.14-.85.14ZM927.36,401.64s0,0,0,0h0ZM927.35,401.64s0,0,0,0c0,0,0,0,0,0ZM927.34,401.63s.03,0,.05,0c.12-.08.41-.37.7-.66l8.34-8.34c.28-.28.58-.58.66-.7,0-.02,0-.03,0-.05-.08-.12-.37-.41-.66-.7l-12.89-12.89c-.25-.25-.38-.58-.38-.92s.14-.68.38-.92l8.86-8.86c.47-.47.95-.95,1.08-1.16,0-.01,0-.03,0-.04-.21-.12-.87-.31-1.5-.5l-41.57-12.23c-.69-.2-1.4-.41-1.66-.43,0,0-.02.02-.02.02.01.26.22.98.43,1.66l12.23,41.57c.19.64.38,1.29.5,1.5.01,0,.02,0,.04,0,.21-.13.69-.61,1.16-1.08l8.86-8.86c.51-.51,1.34-.51,1.85,0l12.89,12.89c.28.28.58.58.7.66ZM901.87,398.05s0,0,0,0h0ZM933.49,366.43h0,0ZM933.49,366.4s0,0,0,0c0,0,0,0,0,0ZM888.67,353.25h0,0ZM888.69,353.23s0,0,0,0c0,0,0,0,0,0Z" fill="#124238"/>
  </g>
  <g>
    <path d="M211.33,461.37c.41-1.33.62-1.99.45-2.45-.14-.4-.45-.71-.84-.87-.45-.18-1.12.01-2.46.38l-41.74,11.63c-1.24.35-1.86.52-2.16.88-.26.32-.37.73-.31,1.13.07.46.52.92,1.42,1.85l8.73,8.98-13.07,12.7c-.58.57-.88.85-.99,1.18-.1.29-.1.6-.01.9.1.33.39.63.95,1.21l8.22,8.46c.57.58.85.88,1.18.99.29.1.6.1.9.01.33-.1.63-.39,1.21-.95l13.07-12.7,8.73,8.98c.9.93,1.35,1.39,1.81,1.47.4.07.81-.03,1.14-.27.37-.28.56-.9.94-2.13l12.82-41.39Z" fill="#fffae1"/>
    <path d="M158.98,497.23c0-.29.05-.57.15-.85.21-.63.63-1.03,1.32-1.7l12.14-11.79-7.82-8.05c-1.06-1.09-1.64-1.69-1.77-2.57-.11-.76.1-1.54.58-2.14.56-.69,1.36-.91,2.82-1.32l41.74-11.63c1.56-.44,2.43-.68,3.28-.34.75.29,1.33.89,1.6,1.65.31.87.04,1.72-.44,3.27l-1.25-.39,1.25.39-12.82,41.39c-.45,1.45-.7,2.25-1.4,2.79-.61.47-1.4.66-2.16.52-.87-.16-1.46-.76-2.51-1.85l-7.82-8.05-12.14,11.79c-.69.67-1.1,1.07-1.73,1.27-.56.17-1.15.16-1.71-.02-.63-.21-1.03-.63-1.7-1.31l-8.22-8.46c-.67-.69-1.07-1.1-1.27-1.73-.09-.28-.13-.57-.12-.86ZM161.58,497.27s0,0,0,0h0ZM161.58,497.27s0,0,0,0c0,0,0,0,0,0ZM161.6,497.25s0,.03,0,.05c.08.12.37.42.65.71l8.22,8.46c.28.29.57.58.69.67.02,0,.03,0,.05,0,.12-.08.42-.37.71-.65l13.08-12.7c.25-.24.58-.37.93-.37s.68.15.92.4l8.73,8.98c.46.47.94.97,1.14,1.1.01,0,.03,0,.04,0,.12-.21.33-.86.52-1.5l12.82-41.39c.21-.69.43-1.39.45-1.66,0,0-.02-.02-.02-.03-.26.01-.98.21-1.67.4l-41.74,11.63c-.64.18-1.3.36-1.51.48,0,.01,0,.02-.01.04.13.21.6.7,1.06,1.17l8.73,8.99c.5.52.49,1.35-.03,1.85l-13.07,12.7c-.29.28-.58.57-.67.69ZM165.54,471.83s0,0,0,0h0ZM196.71,503.91h0s0,0,0,0ZM196.73,503.9s0,0,0,0c0,0,0,0,0,0ZM210.53,459.28h0s0,0,0,0ZM210.55,459.3s0,0,0,0c0,0,0,0,0,0Z" fill="#124238"/>
  </g>
  <g>
    <g>
      <circle cx="499.93" cy="545.65" r="45.36" fill="orange"/>
      <path d="M499.92,591.99c-11.25,0-22.53-4.06-31.43-12.28-18.78-17.34-19.95-46.73-2.61-65.51,17.34-18.78,46.73-19.95,65.51-2.61,18.78,17.34,19.95,46.73,2.61,65.51-9.12,9.88-21.59,14.89-34.08,14.89ZM499.95,501.31c-11.96,0-23.88,4.79-32.61,14.25-16.59,17.97-15.47,46.09,2.5,62.69,17.97,16.59,46.09,15.47,62.69-2.5,16.59-17.97,15.47-46.09-2.5-62.69-8.52-7.86-19.31-11.75-30.08-11.75Z" fill="#124238"/>
    </g>
    <polygon points="494.14 556.39 492.45 553.91 504.2 545.84 492.18 537.38 493.9 534.93 509.45 545.87 494.14 556.39" fill="#124238"/>
  </g>
  <g>
    <rect x="723.7" y="501.09" width="149.28" height="41.53" rx="20.77" ry="20.77" transform="translate(1250.12 1361.84) rotate(-151.45)" fill="#124238"/>
    <circle cx="843.49" cy="546.43" r="13.96" fill="#fffae1"/>
    <circle cx="813.29" cy="530" r="13.96" fill="#fffae1"/>
    <circle cx="783.09" cy="513.56" r="13.96" fill="#fffae1"/>
    <circle cx="752.89" cy="497.13" r="13.96" fill="#fffae1"/>
  </g>
  <path d="M811.56,166.73l7.49,38.57,38.57,7.49c.28.05.28.45,0,.51l-38.57,7.49-7.49,38.57c-.05.28-.45.28-.51,0l-7.49-38.57-38.57-7.49c-.28-.05-.28-.45,0-.51l38.57-7.49,7.49-38.57c.05-.28.45-.28.51,0Z" fill="#fffae1" stroke="#124238" stroke-miterlimit="10" stroke-width="2"/>
  <g>
    <path d="M729.73,42.89h-51.55c-2.4,0-4.35-1.95-4.35-4.35s1.95-4.35,4.35-4.35h51.55c2.4,0,4.35,1.95,4.35,4.35s-1.95,4.35-4.35,4.35Z" fill="orange"/>
    <path d="M729.73,66.89h-51.55c-2.4,0-4.35-1.95-4.35-4.35s1.95-4.35,4.35-4.35h51.55c2.4,0,4.35,1.95,4.35,4.35s-1.95,4.35-4.35,4.35Z" fill="orange"/>
    <path d="M729.73,90.89h-51.55c-2.4,0-4.35-1.95-4.35-4.35s1.95-4.35,4.35-4.35h51.55c2.4,0,4.35,1.95,4.35,4.35s-1.95,4.35-4.35,4.35Z" fill="orange"/>
  </g>
  <circle cx="175.44" cy="62.8" r="26.55" fill="#fffae1"/>
  <circle cx="112.12" cy="62.8" r="26.55" fill="orange"/>
</svg>